<svg width="100%" height="100%" viewBox="0 0 885 557" fill="none" xmlns="http://www.w3.org/2000/svg">
    <path
        d="M169.736 427.688H163.688V414.824H170.792V426.728H176.648V432.584H193.448V426.728H199.4V409.928H193.448V403.976H175.688V398.024H169.736V392.072H163.688V373.256H169.736V367.304H175.688V361.448H194.504V367.304H200.36V373.256H206.312V386.216H199.4V374.312H193.448V368.36H176.648V374.312H170.792V391.112H176.648V396.968H194.504V402.92H200.36V408.872H206.312V427.688H200.36V433.64H194.504V439.688H175.688V433.64H169.736V427.688ZM236.648 361.448H243.752V432.584H279.272V439.688H236.648V361.448ZM315.656 427.688H309.608V373.256H315.656V367.304H321.608V361.448H340.424V367.304H346.28V373.256H352.232V427.688H346.28V433.64H340.424V439.688H321.608V433.64H315.656V427.688ZM322.568 426.728V432.584H339.368V426.728H345.32V374.312H339.368V368.36H322.568V374.312H316.712V426.728H322.568ZM382.568 361.448H413.384V367.304H419.24V373.256H425.192V398.024H419.24V403.976H413.384V409.928H389.672V439.688H382.568V361.448ZM412.328 402.92V396.968H418.28V374.312H412.328V368.36H389.672V402.92H412.328ZM455.528 361.448H498.152V368.36H462.632V396.968H492.2V403.976H462.632V432.584H498.152V439.688H455.528V361.448ZM528.488 361.448H559.304V367.304H565.16V373.256H571.112V392.072H565.16V398.024H559.304V402.92H565.16V420.776H571.112V439.688H564.2V421.736H558.248V403.976H535.592V439.688H528.488V361.448ZM558.248 396.968V391.112H564.2V374.312H558.248V368.36H535.592V396.968H558.248Z"
        fill="#49F627" fill-opacity="0.9" />
    <g filter="url(#filter0_d_52_7)">
        <path
            d="M163.632 491.536H168.304V539.792H163.632V491.536ZM200.624 531.792H196.592V511.312H200.624V507.408H204.592V503.44H217.136V507.408H221.04V511.312H225.008V523.92H201.328V531.152H205.232V535.056H216.432V531.152H220.4V527.184H225.008V531.792H221.04V535.76H217.136V539.792H204.592V535.76H200.624V531.792ZM220.4 519.248V512.016H216.432V508.048H205.232V512.016H201.328V519.248H220.4ZM241.392 523.216H245.424V519.248H261.232V508.048H246.128V515.984H241.392V507.408H245.424V503.44H261.936V507.408H265.84V535.056H269.808V539.792H265.2V535.76H257.968V539.792H245.424V535.76H241.392V523.216ZM257.264 535.056V531.152H261.232V523.92H246.128V535.056H257.264ZM290.16 503.44H294.768V507.408H298.032V503.44H310.576V508.048H298.736V512.016H294.768V539.792H290.16V503.44ZM330.992 503.44H335.728V507.408H338.992V503.44H351.536V507.408H355.44V511.312H359.408V539.792H354.8V512.016H350.832V508.048H339.632V512.016H335.728V539.792H330.992V503.44ZM430.576 508.048H422.576V503.44H430.576V491.536H435.184V503.44H447.024V508.048H435.184V535.056H447.024V539.792H434.48V535.76H430.576V508.048ZM469.424 531.792H465.392V511.312H469.424V507.408H473.392V503.44H485.936V507.408H489.84V511.312H493.808V531.792H489.84V535.76H485.936V539.792H473.392V535.76H469.424V531.792ZM474.032 531.152V535.056H485.232V531.152H489.2V512.016H485.232V508.048H474.032V512.016H470.128V531.152H474.032ZM559.024 531.792H554.992V511.312H559.024V507.408H562.992V503.44H575.536V507.408H579.44V511.312H583.408V523.92H559.728V531.152H563.632V535.056H574.832V531.152H578.8V527.184H583.408V531.792H579.44V535.76H575.536V539.792H562.992V535.76H559.024V531.792ZM578.8 519.248V512.016H574.832V508.048H563.632V512.016H559.728V519.248H578.8ZM599.792 523.216H603.824V519.248H619.632V508.048H604.528V515.984H599.792V507.408H603.824V503.44H620.336V507.408H624.24V535.056H628.208V539.792H623.6V535.76H616.368V539.792H603.824V535.76H599.792V523.216ZM615.664 535.056V531.152H619.632V523.92H604.528V535.056H615.664ZM648.56 503.44H653.168V507.408H656.432V503.44H668.976V508.048H657.136V512.016H653.168V539.792H648.56V503.44ZM689.392 503.44H694.128V507.408H697.392V503.44H709.936V507.408H713.84V511.312H717.808V539.792H713.2V512.016H709.232V508.048H698.032V512.016H694.128V539.792H689.392V503.44Z"
            fill="#49F627" fill-opacity="0.5" shape-rendering="crispEdges" />
    </g>
    <g filter="url(#filter1_d_52_7)">
        <path
            d="M223.9 173.888L225.54 172.743L223.812 170.268L222.206 172.824L223.9 173.888ZM301.4 284.888L299.76 286.033L301.57 288.625L303.137 285.879L301.4 284.888ZM461.471 4.28806L463.168 3.22923L461.394 0.386831L459.734 3.29704L461.471 4.28806ZM719 416.967L717.303 418.026L719.029 420.791L720.712 418L719 416.967ZM879.942 153.02C879.676 151.948 878.592 151.293 877.52 151.558L860.046 155.879C858.974 156.144 858.32 157.229 858.585 158.301C858.85 159.373 859.934 160.028 861.006 159.762L876.539 155.922L880.379 171.454C880.644 172.526 881.729 173.18 882.801 172.915C883.873 172.65 884.528 171.566 884.262 170.494L879.942 153.02ZM35.6936 477.299L225.593 174.952L222.206 172.824L32.3064 475.171L35.6936 477.299ZM222.26 175.033L299.76 286.033L303.04 283.743L225.54 172.743L222.26 175.033ZM303.137 285.879L463.208 5.27907L459.734 3.29704L299.663 283.897L303.137 285.879ZM459.775 5.34688L717.303 418.026L720.697 415.908L463.168 3.22923L459.775 5.34688ZM720.712 418L879.712 154.533L876.288 152.467L717.288 415.934L720.712 418Z"
            fill="#49F627" fill-opacity="0.7" />
    </g>
    <defs>
        <filter id="filter0_d_52_7" x="159.632" y="491.536" width="562.176" height="56.256" filterUnits="userSpaceOnUse"
            color-interpolation-filters="sRGB">
            <feFlood flood-opacity="0" result="BackgroundImageFix" />
            <feColorMatrix in="SourceAlpha" type="matrix" values="0 0 0 0 0 0 0 0 0 0 0 0 0 0 0 0 0 0 127 0"
                result="hardAlpha" />
            <feOffset dy="4" />
            <feGaussianBlur stdDeviation="2" />
            <feComposite in2="hardAlpha" operator="out" />
            <feColorMatrix type="matrix" values="0 0 0 0 0 0 0 0 0 0 0 0 0 0 0 0 0 0 0.25 0" />
            <feBlend mode="normal" in2="BackgroundImageFix" result="effect1_dropShadow_52_7" />
            <feBlend mode="normal" in="SourceGraphic" in2="effect1_dropShadow_52_7" result="shape" />
        </filter>
        <filter id="filter1_d_52_7" x="0.306351" y="0.386841" width="884.015" height="486.912"
            filterUnits="userSpaceOnUse" color-interpolation-filters="sRGB">
            <feFlood flood-opacity="0" result="BackgroundImageFix" />
            <feColorMatrix in="SourceAlpha" type="matrix" values="0 0 0 0 0 0 0 0 0 0 0 0 0 0 0 0 0 0 127 0"
                result="hardAlpha" />
            <feOffset dx="-28" dy="6" />
            <feGaussianBlur stdDeviation="2" />
            <feComposite in2="hardAlpha" operator="out" />
            <feColorMatrix type="matrix" values="0 0 0 0 1 0 0 0 0 1 0 0 0 0 1 0 0 0 0.25 0" />
            <feBlend mode="normal" in2="BackgroundImageFix" result="effect1_dropShadow_52_7" />
            <feBlend mode="normal" in="SourceGraphic" in2="effect1_dropShadow_52_7" result="shape" />
        </filter>
    </defs>
</svg>